<?xml version="1.0" encoding="utf-8"?>
<!-- Generator: Adobe Illustrator 20.0.0, SVG Export Plug-In . SVG Version: 6.00 Build 0)  -->
<svg version="1.1" id="Layer_1" xmlns="http://www.w3.org/2000/svg" xmlns:xlink="http://www.w3.org/1999/xlink" x="0px" y="0px"
	 viewBox="0 0 251.5 45.1" style="enable-background:new 0 0 251.5 45.1;" xml:space="preserve">
<style type="text/css">
	.st0{fill:#FFFFFF;}
	.st1{fill:#FF322E;}
</style>
<g>
	<rect x="0" y="0" class="st0" width="50.2" height="45.1"/>
	<path d="M32.9,15.8h2.2c2.5,0,4,1.2,4,3.4c0,2.2-1.5,3.4-4,3.4h-0.4v4.6h0.6c5.9,0,9.3-3,9.3-8c0-5.1-3.5-8-9.3-8h-7.9v22.8h5.5
		V15.8z M12.8,11.2L5.3,33.9h5.5l7.1-22.2l-3.7,0.7l6.9,21.5h5.6l-7.6-22.8H12.8z M13.8,30.5h9.3l-1.5-4.6h-6.5L13.8,30.5z"/>
	<rect x="50.2" y="0" class="st1" width="5.5" height="45.1"/>
</g>
<rect x="246" y="0" class="st1" width="5.5" height="45.1"/>
<g>
	<path d="M172.3,22.6v2.1h-4.2v2.6h3.2v1.8h-3.2V32h4.4v2h-6.8V22.6H172.3z"/>
	<path d="M178,22.6c2.6,0,4.1,1.6,4.1,4V30c0,2.5-1.5,4.1-4.1,4.1h-4V22.6H178z M178,24.6h-1.6v7.4h1.6c1.1,0,1.7-0.6,1.7-2.2v-3.1
		C179.7,25.2,179.2,24.6,178,24.6z"/>
	<path d="M186.3,22.6V34h-2.4V22.6H186.3z"/>
	<path d="M195.2,22.6v2.1h-2.6V34h-2.4v-9.3h-2.6v-2.1H195.2z"/>
	<path d="M204,26.5v3.7c0,2.5-1.4,4-4.1,4s-4.1-1.6-4.1-4v-3.7c0-2.5,1.4-4,4.1-4S204,24,204,26.5z M201.6,26.5c0-1.4-0.5-2-1.6-2
		s-1.7,0.6-1.7,2v3.7c0,1.5,0.5,2.1,1.7,2.1s1.6-0.6,1.6-2.1V26.5z"/>
	<path d="M209.2,29.6h-1.1V34h-2.4V22.6h3.8c2.6,0,3.7,1.3,3.7,3.4c0,1.5-0.6,2.6-1.8,3.1l2.4,5h-2.6L209.2,29.6z M208.1,27.7h1.3
		c1,0,1.3-0.6,1.3-1.6c0-1.1-0.3-1.5-1.3-1.5h-1.3V27.7z"/>
	<path d="M217.4,22.6V34H215V22.6H217.4z"/>
	<path d="M221.1,34h-2.4l3.4-11.4h2.7l3.4,11.4h-2.5l-0.6-2.4h-3.4L221.1,34z M222.2,29.8h2.5l-1.2-5h0L222.2,29.8z"/>
	<path d="M231.6,22.6v9.3h3.9V34h-6.3V22.6H231.6z"/>
</g>
</svg>
